<svg xmlns="http://www.w3.org/2000/svg" width="344" height="266" fill="none" viewBox="0 0 344 266"><rect width="46.418" height="27.15" x="240.602" y="237.877" fill="#21004B" stroke="#fff" stroke-width="1.511" rx="13.575"/><circle cx="254.467" cy="251.453" r="10.056" fill="#4F55E3"/><rect width="219.501" height="105.69" x="1.492" y="32.462" fill="#1C0040" stroke="#fff" stroke-width="1.511" rx="4.533"/><path fill="#641C67" d="M27.9544 90.9917C14.75 89.004 5.09261 94.5839 1.84325 100.355C1.80171 100.429 1.78125 100.511 1.78125 100.596V137.481C1.78125 137.759 2.00674 137.984 2.28491 137.984H220.122C220.4 137.984 220.625 137.759 220.625 137.481V46.6985C220.625 46.5244 220.535 46.3619 220.386 46.2707C212.751 41.5736 205.571 39.6475 198.567 39.6475C184.927 39.6475 178.228 84.1189 153.705 84.1189C135.526 84.1189 136.262 76.1117 120.065 76.1117C93.7083 76.1117 95.1127 100.467 72.4596 100.467C49.8064 100.467 44.5663 93.4923 27.9544 90.9917Z"/><path fill="#2B1971" d="M27.9544 104.003C14.7482 102.016 5.08999 112.985 1.84193 118.825C1.80077 118.899 1.78125 118.979 1.78125 119.064V138.195H220.842V61.465C220.842 61.291 220.752 61.1292 220.604 61.0373C212.963 56.2874 205.521 51.8254 198.567 52.6593C183.799 54.4301 177.492 107.282 159.843 107.282C141.664 107.282 132.644 91.4501 117.548 93.2603C102.451 95.0705 82.0051 121.67 70.1242 122.533C58.2433 123.396 44.5663 106.504 27.9544 104.003Z"/><path stroke="#4F55E3" stroke-linecap="round" stroke-linejoin="round" stroke-width="2.015" d="M1.78125 118.935C4.96833 113.124 14.6649 102.003 27.9544 104.003C44.5663 106.504 58.212 122.533 70.1242 122.533C87.3026 122.533 102.451 95.0705 117.548 93.2603C132.644 91.4501 141.793 109.446 159.843 107.282C177.893 105.118 183.799 54.4301 198.567 52.6593C205.594 51.8167 213.117 56.3806 220.842 61.1852"/><path stroke="#FF5CAA" stroke-linecap="round" stroke-linejoin="round" stroke-width="2.015" d="M1.78125 100.467C4.96833 94.6564 14.6649 88.9914 27.9544 90.9919C44.5663 93.4925 49.8064 100.467 72.4596 100.467C95.1127 100.467 93.7083 76.112 120.065 76.112C136.262 76.112 135.526 84.1191 153.705 84.1191C178.228 84.1191 184.927 39.6477 198.567 39.6477C205.644 39.6477 212.901 41.6143 220.625 46.4189"/><rect width="219.501" height="105.69" x="1.492" y="32.462" stroke="#fff" stroke-width="1.511" rx="4.533"/><rect width="158.605" height="115.654" x="183.797" y="100.543" fill="#1C0040" stroke="#fff" stroke-width="1.511" rx="4.533"/><rect width="14.347" height="92.357" x="196.52" y="112.191" fill="#4F55E3" opacity=".3" rx="4.029"/><rect width="14.347" height="72.182" x="196.52" y="132.366" fill="#4F55E3" rx="4.029"/><rect width="14.347" height="49.317" x="220.281" y="155.231" fill="#4F55E3" opacity=".3" rx="4.029"/><rect width="14.347" height="38.544" x="220.281" y="166.004" fill="#4F55E3" rx="4.029"/><rect width="14.347" height="66.353" x="244.043" y="138.195" fill="#4F55E3" opacity=".3" rx="4.029"/><rect width="14.347" height="49.317" x="244.043" y="155.231" fill="#4F55E3" rx="4.029"/><rect width="14.347" height="38.544" x="267.805" y="166.004" fill="#4F55E3" opacity=".3" rx="4.029"/><rect width="14.347" height="17.933" x="267.805" y="186.615" fill="#4F55E3" rx="4.029"/><rect width="14.347" height="78.459" x="291.566" y="126.09" fill="#4F55E3" opacity=".3" rx="4.029"/><rect width="14.347" height="34.073" x="291.566" y="170.475" fill="#4F55E3" rx="4.029"/><rect width="14.347" height="86.08" x="315.332" y="118.468" fill="#4F55E3" opacity=".3" rx="4.029"/><rect width="14.347" height="54.697" x="315.332" y="149.851" fill="#4F55E3" rx="4.029"/><rect width="84.968" height="87.933" x="118.727" y="158.068" fill="#21004B" stroke="#fff" stroke-width="1.511" rx="4.533"/><rect width="10.723" height="10.723" x="129.155" y="182.581" fill="#F0EEFF" stroke="#220E4F" stroke-width=".755" rx="2.141"/><path stroke="#AD6DE7" stroke-linecap="round" stroke-width="1.007" d="M131.418 187.881L133.388 189.828L137.155 186.057"/><rect width="10.723" height="10.723" x="129.155" y="197.399" fill="#F0EEFF" stroke="#220E4F" stroke-width=".755" rx="2.141"/><path stroke="#AD6DE7" stroke-linecap="round" stroke-width="1.007" d="M131.418 202.699L133.388 204.646L137.155 200.875"/><rect width="10.723" height="10.723" x="129.155" y="212.216" fill="#F0EEFF" stroke="#220E4F" stroke-width=".755" rx="2.141"/><rect width="10.723" height="10.723" x="129.159" y="227.034" fill="#F0EEFF" stroke="#220E4F" stroke-width=".755" rx="2.141"/><rect width="41.078" height="10.33" x="145.859" y="182.777" fill="#472172" rx="2.518"/><rect width="64.409" height="10.33" x="128.781" y="165.617" fill="#AD6DE7" rx="2.518"/><rect width="37.138" height="10.33" x="145.859" y="197.595" fill="#472172" rx="2.518"/><rect width="43.309" height="10.33" x="145.859" y="212.413" fill="#472172" rx="2.518"/><rect width="33.98" height="10.33" x="145.859" y="227.23" fill="#472172" rx="2.518"/><rect width="77.18" height="78.541" x="318.388" y="1.058" fill="#1C0040" stroke="#F0EEFF" stroke-width="1.511" rx="3.827" transform="rotate(90 318.388 1.0575)"/><path stroke="#F0EEFF" stroke-linecap="round" stroke-width="1.511" d="M299.859 16.5591L299.859 62.7364"/><path stroke="#F0EEFF" stroke-linecap="round" stroke-width="1.511" d="M279.117 16.5591L279.117 62.7364"/><path stroke="#F0EEFF" stroke-linecap="round" stroke-width="1.511" d="M258.379 16.5591L258.379 62.7364"/><circle cx="299.857" cy="28.609" r="4.917" fill="#2F1979" stroke="#4F55E3" stroke-width="1.511" transform="rotate(90 299.857 28.6087)"/><circle cx="279.118" cy="47.838" r="4.917" fill="#641C67" stroke="#FF5CAA" stroke-width="1.511" transform="rotate(90 279.118 47.8378)"/><circle cx="258.38" cy="36.453" r="4.917" fill="#3E176C" stroke="#AD6DE7" stroke-width="1.511" transform="rotate(90 258.38 36.4535)"/></svg>