<svg xmlns="http://www.w3.org/2000/svg" width="50" height="50" fill="none" viewBox="0 0 50 50"><path fill="#000" d="M5.48282 36.3816L12.6946 17.93C13.7108 15.3297 16.2171 13.6184 19.0089 13.6184H23.3568L16.145 32.07C15.1287 34.6702 12.6224 36.3816 9.83067 36.3816H5.48282Z"/><path fill="#000" d="M16.0627 36.3817L23.2745 17.93C24.2908 15.3298 26.7971 13.6184 29.5888 13.6184H33.9367L26.7249 32.0701C25.7087 34.6703 23.2023 36.3817 20.4106 36.3817H16.0627Z"/><path fill="#000" d="M26.6433 36.3817L33.855 17.93C34.8713 15.3298 37.3776 13.6184 40.1693 13.6184H44.5172L37.3055 32.0701C36.2892 34.6703 33.7829 36.3817 30.9911 36.3817H26.6433Z"/></svg>