<svg xmlns="http://www.w3.org/2000/svg" width="56" height="56" fill="none" viewBox="0 0 56 56"><path stroke="#EDEEF7" stroke-linecap="round" stroke-width="1.5" d="M49.1809 20.9318V9.35557C49.1809 8.44524 48.443 7.70728 47.5326 7.70728H6.42857C5.51824 7.70728 4.78027 8.44524 4.78027 9.35557V42.769C4.78027 43.6793 5.51824 44.4173 6.42857 44.4173H25.0247"/><path stroke="#EDEEF7" stroke-width="1.5" d="M5.12793 14.9993H49.0738"/><circle cx="37.4" cy="32.721" r="11.764" stroke="#EDEEF7" stroke-width="1.5"/><circle cx="8.816" cy="11.432" r=".75" fill="#705B8C" stroke="#705B8C" stroke-width=".665" opacity=".8"/><circle cx="13.267" cy="11.432" r=".75" fill="#705B8C" stroke="#705B8C" stroke-width=".665" opacity=".8"/><circle cx="17.718" cy="11.432" r=".75" fill="#705B8C" stroke="#705B8C" stroke-width=".665" opacity=".8"/><path fill="#705B8C" d="M27.6885 10.6819C27.2743 10.6819 26.9385 11.0177 26.9385 11.4319C26.9385 11.8461 27.2743 12.1819 27.6885 12.1819V10.6819ZM45.1476 12.1819C45.5618 12.1819 45.8976 11.8461 45.8976 11.4319C45.8976 11.0177 45.5618 10.6819 45.1476 10.6819V12.1819ZM27.6885 12.1819H45.1476V10.6819H27.6885V12.1819Z" opacity=".8"/><circle cx="37.399" cy="32.721" r="8.353" stroke="#705B8C" stroke-width="1.5" opacity=".8"/><path stroke="#EDEEF7" stroke-width="1.5" d="M44.5908 42.136L50.4499 47.995C51.0936 48.6387 52.1372 48.6387 52.7809 47.995L52.8489 47.927C53.4926 47.2833 53.4926 46.2397 52.8489 45.596L46.9899 39.7369"/></svg>